<svg width="48" height="48" viewBox="0 0 48 48" fill="none" xmlns="http://www.w3.org/2000/svg">
<path d="M48 24C48 10.7452 37.2548 -9.39372e-07 24 -2.09815e-06C10.7452 -3.25692e-06 -9.39372e-07 10.7452 -2.09815e-06 24C-3.25692e-06 37.2548 10.7452 48 24 48C37.2548 48 48 37.2548 48 24Z" fill="#F2F2FF"/>
<path d="M24 27C22.3431 27 21 25.6569 21 24C21 22.3431 22.3431 21 24 21C25.6569 21 27 22.3431 27 24C27 25.6569 25.6569 27 24 27Z" stroke="#08607A" stroke-width="1.5" stroke-miterlimit="10" stroke-linecap="round" stroke-linejoin="round"/>
<path d="M34 24.8794L34 23.1194C34 22.0794 33.15 21.2194 32.1 21.2194C30.29 21.2194 29.55 19.9394 30.46 18.3694C30.98 17.4694 30.67 16.2994 29.76 15.7794L28.03 14.7894C27.24 14.3194 26.22 14.5994 25.75 15.3894L25.64 15.5794C24.74 17.1494 23.26 17.1494 22.35 15.5794L22.24 15.3894C21.77 14.5994 20.75 14.3194 19.96 14.7894L18.23 15.7794C17.32 16.2994 17.01 17.4694 17.53 18.3694C18.44 19.9394 17.7 21.2194 15.89 21.2194C14.85 21.2194 13.99 22.0694 13.99 23.1194L13.99 24.8794C13.99 25.9194 14.84 26.7794 15.89 26.7794C17.7 26.7794 18.44 28.0594 17.53 29.6294C17.01 30.5394 17.32 31.6994 18.23 32.2194L19.96 33.2094C20.75 33.6794 21.77 33.3994 22.24 32.6094L22.35 32.4194C23.25 30.8494 24.73 30.8494 25.64 32.4194L25.75 32.6094C26.22 33.3994 27.24 33.6794 28.03 33.2094L29.76 32.2194C30.67 31.6994 30.98 30.5294 30.46 29.6294C29.55 28.0594 30.29 26.7794 32.1 26.7794C33.15 26.7794 34 25.9194 34 24.8794Z" stroke="#08607A" stroke-width="1.5" stroke-miterlimit="10" stroke-linecap="round" stroke-linejoin="round"/>
</svg>
