<svg width="20" height="20" viewBox="0 0 20 20" fill="none" xmlns="http://www.w3.org/2000/svg">
<path d="M16.875 3.6H13.9V3.125C13.9 2.58794 13.6867 2.07287 13.3069 1.69311C12.9271 1.31335 12.4121 1.1 11.875 1.1H8.125C7.58794 1.1 7.07287 1.31335 6.69311 1.69311C6.31335 2.07287 6.1 2.58794 6.1 3.125V3.6H3.125C2.91946 3.6 2.72233 3.68165 2.57699 3.82699C2.43165 3.97233 2.35 4.16946 2.35 4.375C2.35 4.58054 2.43165 4.77767 2.57699 4.92301C2.72233 5.06835 2.91946 5.15 3.125 5.15H3.6V16.25C3.6 16.6213 3.7475 16.9774 4.01005 17.2399C4.2726 17.5025 4.6287 17.65 5 17.65H15C15.3713 17.65 15.7274 17.5025 15.9899 17.24C16.2525 16.9774 16.4 16.6213 16.4 16.25V5.15H16.875C17.0805 5.15 17.2777 5.06835 17.423 4.92301C17.5683 4.77767 17.65 4.58054 17.65 4.375C17.65 4.16946 17.5683 3.97233 17.423 3.82699C17.2777 3.68165 17.0805 3.6 16.875 3.6ZM7.65 3.125C7.65 2.99902 7.70004 2.8782 7.78912 2.78912C7.8782 2.70004 7.99902 2.65 8.125 2.65H11.875C12.001 2.65 12.1218 2.70004 12.2109 2.78912C12.3 2.8782 12.35 2.99902 12.35 3.125V3.6H7.65V3.125ZM14.85 16.1H5.15V5.15H14.85V16.1ZM8.9 13.125V8.125C8.9 7.91946 8.81835 7.72233 8.67301 7.57699C8.52767 7.43165 8.33054 7.35 8.125 7.35C7.91946 7.35 7.72233 7.43165 7.57699 7.57699C7.43165 7.72233 7.35 7.91946 7.35 8.125V13.125C7.35 13.3305 7.43165 13.5277 7.57699 13.673C7.72233 13.8183 7.91946 13.9 8.125 13.9C8.33054 13.9 8.52767 13.8183 8.67301 13.673C8.81835 13.5277 8.9 13.3305 8.9 13.125ZM12.65 13.125V8.125C12.65 7.91946 12.5683 7.72233 12.423 7.57699C12.2777 7.43165 12.0805 7.35 11.875 7.35C11.6695 7.35 11.4723 7.43165 11.327 7.57699C11.1817 7.72233 11.1 7.91946 11.1 8.125V13.125C11.1 13.3305 11.1817 13.5277 11.327 13.673C11.4723 13.8183 11.6695 13.9 11.875 13.9C12.0805 13.9 12.2777 13.8183 12.423 13.673C12.5683 13.5277 12.65 13.3305 12.65 13.125Z" fill="#F04438" stroke="#F04438" stroke-width="0.3"/>
</svg>
