<svg width="24" height="24" viewBox="0 0 24 24" fill="none" xmlns="http://www.w3.org/2000/svg">
<path d="M4.87867 8.90834L10.5858 3.54999C11.3668 2.81667 12.6332 2.81667 13.4142 3.54999L19.1213 8.90834M4.87867 8.90834C4.31626 9.43653 3.99999 10.1531 3.99999 10.9V18.1833C3.99999 19.7389 5.34314 21 6.99999 21H8.99997M4.87867 8.90834C4.87878 8.90824 4.87857 8.90843 4.87867 8.90834ZM4.87867 8.90834L3.00027 10.6722M19.1213 8.90834C19.6839 9.43656 20 10.153 20 10.9V18.1833C20 19.7389 18.6568 21 17 21H15M19.1213 8.90834L21 10.6722M8.99997 21H15M8.99997 21V16C8.99997 14.8954 9.8954 14 11 14H13C14.1045 14 15 14.8954 15 16V21" stroke="#5A5A5A" stroke-width="1.5" stroke-linecap="round"/>
</svg>
