<svg width="16" height="16" viewBox="0 0 16 16" fill="none" xmlns="http://www.w3.org/2000/svg">
<path d="M6.06744 3.85081C6.02346 3.68594 6.00002 3.5127 6.00002 3.33398C6.00002 2.22941 6.89545 1.33398 8.00002 1.33398C9.10459 1.33398 10 2.22941 10 3.33398C10 3.5127 9.97658 3.68594 9.9326 3.85081M6.06744 3.85081C6.62627 3.52351 7.28916 3.33398 8.00002 3.33398C8.71088 3.33398 9.37377 3.52351 9.9326 3.85081M6.06744 3.85081C6.02164 3.87763 5.97654 3.90537 5.93217 3.93402C4.99872 4.53665 4.38824 5.53619 4.38824 6.66732V7.09353C4.38824 8.1285 4.12715 9.14925 3.62563 10.075L2.74388 11.7025C2.50373 12.1458 2.85299 12.6673 3.38997 12.6673H6.00002M9.9326 3.85081C9.9784 3.87763 10.0235 3.90537 10.0679 3.93402C11.0013 4.53665 11.6118 5.53619 11.6118 6.66732V7.09353C11.6118 8.1285 11.8729 9.14925 12.3744 10.075L13.2562 11.7025C13.4963 12.1458 13.1471 12.6673 12.6101 12.6673H10M10 12.6673C10 13.7719 9.10459 14.6673 8.00002 14.6673C6.89545 14.6673 6.00002 13.7719 6.00002 12.6673M10 12.6673H6.00002" stroke="#333436"/>
</svg>
