<svg width="25" height="25" viewBox="0 0 25 25" fill="none" xmlns="http://www.w3.org/2000/svg">
<g clip-path="url(#clip0_259_2069)">
<path d="M22.292 19.2033C21.929 20.0418 21.4994 20.8136 21.0016 21.5232C20.3231 22.4906 19.7676 23.1602 19.3395 23.5321C18.6758 24.1424 17.9647 24.455 17.2032 24.4728C16.6566 24.4728 15.9973 24.3172 15.23 24.0017C14.4601 23.6876 13.7525 23.5321 13.1056 23.5321C12.4271 23.5321 11.6994 23.6876 10.9211 24.0017C10.1415 24.3172 9.51355 24.4817 9.03342 24.4979C8.30322 24.5291 7.57539 24.2076 6.8489 23.5321C6.38521 23.1276 5.80523 22.4343 5.11043 21.4521C4.36498 20.4033 3.75211 19.187 3.27198 17.8004C2.75777 16.3026 2.5 14.8523 2.5 13.4482C2.5 11.8398 2.84754 10.4526 3.54367 9.29011C4.09076 8.35636 4.81859 7.61979 5.72953 7.07906C6.64046 6.53834 7.62473 6.26279 8.68469 6.24516C9.26467 6.24516 10.0252 6.42457 10.9704 6.77715C11.9129 7.13091 12.5181 7.31032 12.7834 7.31032C12.9817 7.31032 13.654 7.10054 14.7937 6.68234C15.8714 6.2945 16.781 6.13391 17.5262 6.19717C19.5454 6.36012 21.0624 7.1561 22.0712 8.59013C20.2654 9.68432 19.3721 11.2169 19.3898 13.1829C19.4061 14.7142 19.9617 15.9886 21.0535 17.0004C21.5483 17.47 22.1009 17.833 22.7156 18.0907C22.5823 18.4774 22.4416 18.8477 22.292 19.2033ZM17.661 0.980137C17.661 2.18041 17.2225 3.3011 16.3484 4.33841C15.2937 5.57155 14.0179 6.28413 12.6343 6.17168C12.6167 6.02769 12.6065 5.87614 12.6065 5.71688C12.6065 4.56462 13.1081 3.33147 13.9989 2.32321C14.4436 1.8127 15.0092 1.38823 15.6951 1.04962C16.3796 0.716055 17.0269 0.531589 17.6358 0.5C17.6536 0.660458 17.661 0.820926 17.661 0.980121V0.980137Z" fill="#111216"/>
</g>
<defs>
<clipPath id="clip0_259_2069">
<rect width="24" height="24" fill="white" transform="translate(0.5 0.5)"/>
</clipPath>
</defs>
</svg>
