<svg width="20" height="20" viewBox="0 0 20 20" fill="none" xmlns="http://www.w3.org/2000/svg">
<g filter="url(#filter0_d_308_5688)">
<rect width="20" height="20" rx="4.61538" fill="#E8E9ED" shape-rendering="crispEdges"/>
<path d="M13.0884 9.04931L10.2041 11.9337C10.1773 11.9605 10.1455 11.9818 10.1105 11.9963C10.0754 12.0108 10.0379 12.0183 10 12.0183C9.96209 12.0183 9.92456 12.0108 9.88954 11.9963C9.85453 11.9818 9.82272 11.9605 9.79593 11.9337L6.91155 9.04931C6.85743 8.99519 6.82703 8.92178 6.82703 8.84524C6.82703 8.7687 6.85743 8.69529 6.91155 8.64117C6.96568 8.58705 7.03908 8.55664 7.11562 8.55664C7.19217 8.55664 7.26557 8.58705 7.31969 8.64117L10 11.3218L12.6803 8.64117C12.7071 8.61437 12.7389 8.59311 12.7739 8.57861C12.8089 8.56411 12.8465 8.55664 12.8844 8.55664C12.9223 8.55664 12.9598 8.56411 12.9948 8.57861C13.0298 8.59311 13.0616 8.61437 13.0884 8.64117C13.1152 8.66797 13.1365 8.69978 13.151 8.7348C13.1655 8.76981 13.173 8.80734 13.173 8.84524C13.173 8.88314 13.1655 8.92067 13.151 8.95568C13.1365 8.99069 13.1152 9.02251 13.0884 9.04931Z" fill="#5A5A5A"/>
</g>
<defs>
<filter id="filter0_d_308_5688" x="-0.769231" y="-0.384615" width="21.5385" height="21.5385" filterUnits="userSpaceOnUse" color-interpolation-filters="sRGB">
<feFlood flood-opacity="0" result="BackgroundImageFix"/>
<feColorMatrix in="SourceAlpha" type="matrix" values="0 0 0 0 0 0 0 0 0 0 0 0 0 0 0 0 0 0 127 0" result="hardAlpha"/>
<feOffset dy="0.384615"/>
<feGaussianBlur stdDeviation="0.384615"/>
<feComposite in2="hardAlpha" operator="out"/>
<feColorMatrix type="matrix" values="0 0 0 0 0.0509804 0 0 0 0 0.0509804 0 0 0 0 0.0705882 0 0 0 0.06 0"/>
<feBlend mode="normal" in2="BackgroundImageFix" result="effect1_dropShadow_308_5688"/>
<feBlend mode="normal" in="SourceGraphic" in2="effect1_dropShadow_308_5688" result="shape"/>
</filter>
</defs>
</svg>
