<svg width="20" height="20" viewBox="0 0 20 20" fill="none" xmlns="http://www.w3.org/2000/svg">
<path d="M8.50458 16.3111C8.22081 16.5949 7.85546 16.7829 7.45961 16.8489L3.62136 17.4886C2.96977 17.5972 2.40486 17.0323 2.51346 16.3807L3.15317 12.5424C3.21914 12.1466 3.40715 11.7812 3.69092 11.4975M8.50458 16.3111L15.6048 9.21086L10.7912 4.39721M8.50458 16.3111L3.69092 11.4975M3.69092 11.4975L10.7912 4.39721M10.7912 4.39721L12.1766 3.01178C12.859 2.32941 13.9653 2.32941 14.6477 3.01178L16.9882 5.35232C17.6714 6.03548 17.6705 7.14339 16.9862 7.82542L15.6048 9.20225M17.5 17.4886H12.5" stroke="#FFBD4C" stroke-width="2" stroke-linecap="round" stroke-linejoin="round"/>
</svg>
