<svg width="18" height="10" viewBox="0 0 18 10" fill="none" xmlns="http://www.w3.org/2000/svg">
<path d="M16.8125 7.17266C16.7411 7.21337 16.6624 7.2396 16.5808 7.24985C16.4993 7.2601 16.4165 7.25417 16.3373 7.2324C16.258 7.21063 16.1839 7.17345 16.119 7.12298C16.0542 7.07252 15.9999 7.00975 15.9593 6.93829L14.475 4.34454C13.612 4.92804 12.66 5.36761 11.6562 5.6461L12.1148 8.39766C12.1283 8.47867 12.1258 8.56154 12.1073 8.64155C12.0887 8.72156 12.0546 8.79714 12.0069 8.86396C11.9592 8.93079 11.8987 8.98755 11.829 9.031C11.7593 9.07445 11.6818 9.10374 11.6007 9.11719C11.5674 9.12265 11.5337 9.12552 11.5 9.12579C11.3521 9.12557 11.2091 9.07293 11.0964 8.97724C10.9837 8.88155 10.9085 8.74899 10.8843 8.60313L10.4336 5.90157C9.48293 6.03386 8.51856 6.03386 7.56793 5.90157L7.11715 8.60313C7.09289 8.74926 7.01753 8.88202 6.90449 8.97774C6.79145 9.07347 6.64809 9.12594 6.49996 9.12579C6.46541 9.12564 6.43093 9.12277 6.39684 9.11719C6.31582 9.10374 6.23825 9.07445 6.16856 9.031C6.09887 8.98755 6.03843 8.93079 5.99068 8.86396C5.94294 8.79714 5.90884 8.72156 5.89032 8.64155C5.87181 8.56154 5.86924 8.47867 5.88277 8.39766L6.34371 5.6461C5.3403 5.36672 4.38887 4.92636 3.52652 4.34219L2.04684 6.93829C1.96396 7.08271 1.8271 7.18829 1.66637 7.2318C1.50565 7.27531 1.33422 7.2532 1.1898 7.17032C1.04539 7.08744 0.939806 6.95058 0.896291 6.78986C0.852777 6.62913 0.874893 6.45771 0.957773 6.31329L2.52027 3.57891C1.97144 3.10476 1.46677 2.58178 1.01246 2.01641C0.955803 1.95315 0.912632 1.87901 0.885582 1.79851C0.858532 1.71801 0.84817 1.63285 0.85513 1.54821C0.862089 1.46357 0.886224 1.38124 0.926061 1.30625C0.965898 1.23125 1.0206 1.16515 1.08683 1.112C1.15306 1.05885 1.22943 1.01975 1.31127 0.997089C1.39311 0.974431 1.47872 0.968689 1.56285 0.980215C1.64699 0.991741 1.72789 1.02029 1.80063 1.06413C1.87336 1.10796 1.9364 1.16615 1.9859 1.23516C3.28277 2.83985 5.55152 4.75079 8.99996 4.75079C12.4484 4.75079 14.7171 2.83751 16.014 1.23516C16.063 1.16474 16.1259 1.10514 16.1988 1.06008C16.2718 1.01501 16.3532 0.985436 16.4381 0.973196C16.5229 0.960957 16.6094 0.966313 16.6921 0.988931C16.7749 1.01155 16.852 1.05095 16.9189 1.10467C16.9857 1.1584 17.0408 1.2253 17.0806 1.30122C17.1205 1.37714 17.1443 1.46045 17.1506 1.54597C17.1569 1.63149 17.1455 1.71739 17.1172 1.79832C17.0888 1.87925 17.0442 1.95349 16.9859 2.01641C16.5316 2.58178 16.0269 3.10476 15.4781 3.57891L17.0406 6.31329C17.0825 6.38457 17.1099 6.46346 17.1211 6.5454C17.1324 6.62733 17.1272 6.71069 17.106 6.79062C17.0848 6.87056 17.0479 6.94548 16.9975 7.01106C16.9471 7.07664 16.8842 7.13157 16.8125 7.17266Z" fill="#7D7F81"/>
</svg>
