<svg width="20" height="21" viewBox="0 0 20 21" fill="none" xmlns="http://www.w3.org/2000/svg">
<path fill-rule="evenodd" clip-rule="evenodd" d="M9.99999 1.41602C4.9834 1.41602 0.916656 5.48276 0.916656 10.4993C0.916656 15.5159 4.9834 19.5827 9.99999 19.5827C15.0166 19.5827 19.0833 15.5159 19.0833 10.4993C19.0833 5.48276 15.0166 1.41602 9.99999 1.41602ZM2.41666 10.4993C2.41666 6.31119 5.81183 2.91602 9.99999 2.91602C14.1881 2.91602 17.5833 6.31119 17.5833 10.4993C17.5833 14.6875 14.1881 18.0827 9.99999 18.0827C5.81183 18.0827 2.41666 14.6875 2.41666 10.4993ZM10.75 9.66602C10.75 9.2518 10.4142 8.91602 9.99999 8.91602C9.58578 8.91602 9.24999 9.2518 9.24999 9.66602V14.666C9.24999 15.0802 9.58578 15.416 9.99999 15.416C10.4142 15.416 10.75 15.0802 10.75 14.666V9.66602ZM9.99999 7.16602C10.4602 7.16602 10.8333 6.79292 10.8333 6.33268C10.8333 5.87245 10.4602 5.49935 9.99999 5.49935C9.53975 5.49935 9.16666 5.87245 9.16666 6.33268C9.16666 6.79292 9.53975 7.16602 9.99999 7.16602Z" fill="#7D7F81"/>
</svg>
