<svg width="20" height="20" viewBox="0 0 20 20" fill="none" xmlns="http://www.w3.org/2000/svg">
<g clip-path="url(#clip0_391_5300)">
<path d="M10 0.667969C15.1544 0.668145 19.3338 4.84658 19.334 10.001C19.3338 15.1554 15.1544 19.3348 10 19.335C4.8456 19.3348 0.667168 15.1554 0.666992 10.001C0.667168 4.84658 4.8456 0.668145 10 0.667969ZM10 2.66797C5.95017 2.66814 2.66717 5.95115 2.66699 10.001C2.66717 14.0508 5.95017 17.3348 10 17.335C14.0498 17.3348 17.3338 14.0508 17.334 10.001C17.3338 5.95115 14.0498 2.66814 10 2.66797ZM10 8.16797C10.5521 8.16814 11 8.61579 11 9.16797V14.168C10.9998 14.72 10.552 15.1678 10 15.168C9.44797 15.1678 9.00018 14.72 9 14.168V9.16797C9 8.61579 9.44787 8.16814 10 8.16797ZM10 5.00098C10.4601 5.00098 10.8328 5.3739 10.833 5.83398C10.833 6.29422 10.4602 6.66797 10 6.66797C9.53976 6.66797 9.16699 6.29422 9.16699 5.83398C9.16717 5.3739 9.53987 5.00098 10 5.00098Z" fill="#40C4AA"/>
</g>
<defs>
<clipPath id="clip0_391_5300">
<rect width="20" height="20" fill="white"/>
</clipPath>
</defs>
</svg>
