<svg width="24" height="25" viewBox="0 0 24 25" fill="none" xmlns="http://www.w3.org/2000/svg">
<path fill-rule="evenodd" clip-rule="evenodd" d="M8.75 8.5C8.75 6.70507 10.2051 5.25 12 5.25C13.7949 5.25 15.25 6.70507 15.25 8.5V9.5C15.25 9.91421 15.5858 10.25 16 10.25C16.4142 10.25 16.75 9.91421 16.75 9.5V8.5C16.75 5.87665 14.6234 3.75 12 3.75C9.37665 3.75 7.25 5.87665 7.25 8.5V11.75H7C5.48122 11.75 4.25 12.9812 4.25 14.5V18.5C4.25 20.0188 5.48122 21.25 7 21.25H17C18.5188 21.25 19.75 20.0188 19.75 18.5V14.5C19.75 12.9812 18.5188 11.75 17 11.75H16H8.75V8.5ZM5.75 14.5C5.75 13.8096 6.30964 13.25 7 13.25H8H16H17C17.6904 13.25 18.25 13.8096 18.25 14.5V18.5C18.25 19.1904 17.6904 19.75 17 19.75H7C6.30964 19.75 5.75 19.1904 5.75 18.5V14.5ZM12 17.75C12.6904 17.75 13.25 17.1904 13.25 16.5C13.25 15.8096 12.6904 15.25 12 15.25C11.3096 15.25 10.75 15.8096 10.75 16.5C10.75 17.1904 11.3096 17.75 12 17.75Z" fill="#7D7F81"/>
</svg>
