<svg width="20" height="20" viewBox="0 0 20 20" fill="none" xmlns="http://www.w3.org/2000/svg">
<path fill-rule="evenodd" clip-rule="evenodd" d="M12.3812 9.02869C12.9832 8.11087 13.3334 7.01299 13.3334 5.83333C13.3334 4.65367 12.9832 3.5558 12.3812 2.63798C12.6829 2.54821 13.0025 2.5 13.3333 2.5C15.1743 2.5 16.6667 3.99238 16.6667 5.83333C16.6667 7.67428 15.1743 9.16667 13.3333 9.16667C13.0025 9.16667 12.6829 9.11846 12.3812 9.02869ZM14.895 17.5C14.9636 17.2337 15.0001 16.9544 15.0001 16.6667V15.8333C15.0001 14.2568 14.4528 12.808 13.5379 11.6667H14.1667C16.4679 11.6667 18.3333 13.5321 18.3333 15.8333V16.6667C18.3333 17.1269 17.9603 17.5 17.5 17.5H14.895Z" fill="#7D7F81"/>
<path d="M8.33333 11.6667H6.66667C4.36548 11.6667 2.5 13.5321 2.5 15.8333V16.6667C2.5 17.1269 2.8731 17.5 3.33333 17.5H11.6667C12.1269 17.5 12.5 17.1269 12.5 16.6667V15.8333C12.5 13.5321 10.6345 11.6667 8.33333 11.6667Z" stroke="#7D7F81" stroke-width="1.5"/>
<path d="M7.5 9.16667C9.34095 9.16667 10.8333 7.67428 10.8333 5.83333C10.8333 3.99238 9.34095 2.5 7.5 2.5C5.65905 2.5 4.16667 3.99238 4.16667 5.83333C4.16667 7.67428 5.65905 9.16667 7.5 9.16667Z" stroke="#7D7F81" stroke-width="1.5"/>
</svg>
