<svg width="50" height="50" viewBox="0 0 50 50" fill="none" xmlns="http://www.w3.org/2000/svg">
<path d="M42.9688 31.25C42.9688 31.7136 42.8313 32.1667 42.5738 32.5521C42.3162 32.9375 41.9502 33.2379 41.5219 33.4153C41.0936 33.5927 40.6224 33.6392 40.1678 33.5487C39.7131 33.4583 39.2955 33.2351 38.9677 32.9073C38.6399 32.5795 38.4167 32.1619 38.3263 31.7072C38.2358 31.2526 38.2823 30.7814 38.4597 30.3531C38.6371 29.9248 38.9375 29.5588 39.3229 29.3012C39.7083 29.0437 40.1614 28.9062 40.625 28.9062C41.2466 28.9062 41.8427 29.1532 42.2823 29.5927C42.7218 30.0323 42.9688 30.6284 42.9688 31.25ZM42.0801 38.9238C41.7369 41.1364 40.6144 43.1535 38.9151 44.6114C37.2158 46.0693 35.0515 46.8721 32.8125 46.875H28.125C25.6394 46.8724 23.2563 45.8839 21.4987 44.1263C19.7411 42.3687 18.7526 39.9856 18.75 37.5V29.5879C15.7296 29.2074 12.9518 27.7376 10.938 25.4545C8.92424 23.1714 7.81288 20.2318 7.8125 17.1875V7.8125C7.8125 7.3981 7.97712 7.00067 8.27015 6.70765C8.56317 6.41462 8.9606 6.25 9.375 6.25H14.0625C14.4769 6.25 14.8743 6.41462 15.1674 6.70765C15.4604 7.00067 15.625 7.3981 15.625 7.8125C15.625 8.2269 15.4604 8.62433 15.1674 8.91735C14.8743 9.21038 14.4769 9.375 14.0625 9.375H10.9375V17.1875C10.9374 18.4292 11.184 19.6586 11.6629 20.8043C12.1418 21.9499 12.8436 22.989 13.7274 23.8612C14.6113 24.7334 15.6595 25.4214 16.8114 25.8851C17.9633 26.3488 19.1959 26.5791 20.4375 26.5625C25.5371 26.4961 29.6875 22.2168 29.6875 17.0254V9.375H26.5625C26.1481 9.375 25.7507 9.21038 25.4576 8.91735C25.1646 8.62433 25 8.2269 25 7.8125C25 7.3981 25.1646 7.00067 25.4576 6.70765C25.7507 6.41462 26.1481 6.25 26.5625 6.25H31.25C31.6644 6.25 32.0618 6.41462 32.3549 6.70765C32.6479 7.00067 32.8125 7.3981 32.8125 7.8125V17.0254C32.8125 23.4395 28.0215 28.8008 21.875 29.5859V37.5C21.875 39.1576 22.5335 40.7473 23.7056 41.9194C24.8777 43.0915 26.4674 43.75 28.125 43.75H32.8125C34.2318 43.7477 35.6082 43.2632 36.7161 42.376C37.824 41.4889 38.5976 40.2517 38.9102 38.8672C37.0231 38.4433 35.3604 37.3346 34.2437 35.7554C33.127 34.1763 32.6357 32.2391 32.8649 30.3187C33.0941 28.3983 34.0276 26.6311 35.4845 25.3592C36.9415 24.0873 38.8185 23.401 40.7523 23.4332C42.6861 23.4654 44.5392 24.2137 45.9531 25.5334C47.367 26.8531 48.2411 28.6503 48.4063 30.5773C48.5715 32.5043 48.0161 34.424 46.8475 35.9651C45.6789 37.5062 43.9802 38.5591 42.0801 38.9199V38.9238ZM45.3125 31.25C45.3125 30.3229 45.0376 29.4166 44.5225 28.6458C44.0074 27.8749 43.2754 27.2741 42.4188 26.9193C41.5623 26.5645 40.6198 26.4717 39.7105 26.6526C38.8012 26.8334 37.966 27.2799 37.3104 27.9354C36.6549 28.591 36.2084 29.4262 36.0276 30.3355C35.8467 31.2448 35.9395 32.1873 36.2943 33.0438C36.6491 33.9004 37.2499 34.6324 38.0208 35.1475C38.7916 35.6626 39.6979 35.9375 40.625 35.9375C41.8682 35.9375 43.0605 35.4436 43.9396 34.5646C44.8186 33.6855 45.3125 32.4932 45.3125 31.25Z" fill="white"/>
</svg>
