<svg width="50" height="50" viewBox="0 0 50 50" fill="none" xmlns="http://www.w3.org/2000/svg">
<path d="M43.75 12.5H30.209L24.791 8.4375C24.2493 8.03331 23.5919 7.81418 22.916 7.8125H14.0625C13.2337 7.8125 12.4388 8.14174 11.8528 8.72779C11.2667 9.31384 10.9375 10.1087 10.9375 10.9375V14.0625H7.8125C6.9837 14.0625 6.18884 14.3917 5.60279 14.9778C5.01674 15.5638 4.6875 16.3587 4.6875 17.1875V39.0625C4.6875 39.8913 5.01674 40.6862 5.60279 41.2722C6.18884 41.8583 6.9837 42.1875 7.8125 42.1875H37.6738C38.4562 42.1865 39.2063 41.8752 39.7595 41.322C40.3127 40.7688 40.624 40.0187 40.625 39.2363V35.9375H43.9238C44.7062 35.9365 45.4563 35.6252 46.0095 35.072C46.5627 34.5188 46.874 33.7687 46.875 32.9863V15.625C46.875 14.7962 46.5458 14.0013 45.9597 13.4153C45.3737 12.8292 44.5788 12.5 43.75 12.5ZM37.5 39.0625H7.8125V17.1875H16.666L22.5 21.5625C22.7705 21.7653 23.0994 21.875 23.4375 21.875H37.5V39.0625ZM43.75 32.8125H40.625V21.875C40.625 21.0462 40.2958 20.2513 39.7097 19.6653C39.1237 19.0792 38.3288 18.75 37.5 18.75H23.959L18.541 14.6875C17.9993 14.2833 17.3419 14.0642 16.666 14.0625H14.0625V10.9375H22.916L28.75 15.3125C29.0205 15.5153 29.3494 15.625 29.6875 15.625H43.75V32.8125Z" fill="white"/>
</svg>
